Patient4_TMGait_0pt8_01_left_46_EMG.mot
version=1
nRows=20
nColumns=33
inDegrees=no
endheader
time	1LAddLong	2LGlutMax	3LGlutMed	4LIliopsoas	5LSemiMemb	6LBicFemLong	7LRecFem	8LVastMed	9LVastLat	10LGasMed	11LTibAnt	12lTibPost	13LPeroneusLong	14LSol	15LExtDigLong	16LFlexDigLong	17RAddLong	18RGlutMax	19RGlutMed	20RIliopsoas	21RSemiMemb	22RBicFemLong	23RRecFem	24RVastMed	25RVastLat	26RGasMed	27RTibAnt	28RTibPost	29RPeroneusLong	30RSol	31RExtDigLong	32RFlexDigLong
52.388	0.019684	0.6221	-0.014954	0.006714	0.006409	0.046234	-0.093536	0.004425	0.23514	0.068665	0.079193	-0.007935	0.091248	0.047607	0.00473	0.004272	0.009308	-0.19821	-0.61813	0.014038	-0.024567	-0.02121	0.049591	-0.006256	-0.001221	-0.013123	0.49576	0.005341	-1.1723	0.054321	0	-0.00824
52.389	0.026245	0.6694	-0.024719	0.00061	0.051117	0.030212	-0.1088	0.00412	0.23758	0.11032	-0.015411	-0.002899	0.10132	-0.005188	-0.018463	0.009003	0.003967	-0.24826	-0.47684	0.005951	-0.003662	-0.031738	0.019684	-0.070038	-0.027924	-0.005493	0.45075	-0.000916	-0.29373	-0.020294	-0.003357	-0.011749
52.39	0.015106	0.71426	-0.056458	-0.007019	0.032654	0.039978	-0.10956	0.001678	0.22614	0.082092	-0.005341	-0.009003	0.099487	-0.029755	0.002747	0.016327	-0.006104	-0.29877	-0.95383	-0.007935	0.003357	-0.000763	-0.070496	-0.057678	0.017548	-0.007324	0.2652	-0.001678	1.1172	0.11597	-0.002441	-0.022278
52.391	0.010529	0.80963	-0.041656	-0.006866	0.016022	0.031891	-0.10559	0.014496	0.22263	0.050659	0.007324	-0.009003	0.11169	-0.009003	0.001831	0.010223	-0.003357	-0.32471	-0.57968	0.01709	0.000458	0.004883	0.001068	-0.036774	-0.030975	-0.007477	-0.22232	-0.002899	1.1765	0.058136	-0.005493	-0.01297
52.392	0.007629	0.85388	-0.061646	0.002136	0.007935	-0.001678	-0.081024	0.005035	0.21988	0.010071	0.014801	-0.011139	0.10208	-0.019073	-0.02655	0.001526	-0.008698	-0.34637	0.5307	0.004425	-0.01709	0.007935	0.080261	-0.097351	-0.12054	0.011597	-0.6427	-0.001526	2.1149	0.031128	-0.006714	-0.005341
52.393	0.015259	0.94315	-0.044098	0.011749	-0.003357	0.001984	-0.091553	0.002747	0.22156	-0.009308	0.013428	-0.005798	0.083771	-0.082245	-0.047455	0.010986	-0.011749	-0.40863	0.93246	-0.036926	-0.005493	0.059662	0.00412	-0.10269	-0.17471	0.006714	-0.8429	-0.005188	1.1061	0.15915	0.00061	-0.014038
52.394	0.007629	1.0167	0.05188	-0.000305	0.003357	0.000763	-0.11139	0.002747	0.21881	-0.026093	0.017548	-0.007782	0.079346	-0.093994	-0.021973	0.004883	-0.017548	-0.34012	0.32562	-0.074158	-0.000305	0.058136	-0.20767	0.080566	-0.067139	0.001678	-0.37338	-0.007324	-0.040283	0.30579	-0.001068	-0.011749
52.395	0.006104	1.0188	0.11459	0.006409	0.005493	0.027771	-0.095673	0.004883	0.20737	-0.043488	0.024872	-0.005188	0.072021	-0.057068	0.000458	0.004425	-0.015259	-0.31982	-0.19974	-0.044403	0.00351	0.049438	-0.22476	0.19058	-0.003204	0.003204	0.097198	-0.008087	-0.66696	0.08667	0.004425	-0.009308
52.396	0.014191	1.0387	0.013123	0.003967	-0.013733	0.033722	-0.095673	0.004578	0.21225	-0.035553	0.037842	0.000153	0.063477	-0.086823	-0.002899	0.000305	-0.018616	-0.37933	-0.27115	0.006256	-0.007935	0.017853	-0.50766	0.15823	0.092926	-0.00061	0.2681	-0.003662	0.007935	0.026398	-0.003204	-0.001831
52.397	0.011292	1.0229	-0.054474	0.011292	-0.048828	0.042725	-0.09491	0.004578	0.20264	-0.049286	0.032959	-0.011749	0.074921	-0.071564	0.002747	0.002747	-0.000305	-0.38467	0.041504	0.005493	-0.013885	-0.011749	-0.3035	0.22705	0.14771	0.004425	0.062103	-0.001373	0.59418	0.05722	-0.000763	-0.009003
52.398	0.009766	1.0234	-0.086365	0.016174	-0.044098	0.022125	-0.098572	0.002747	0.19745	-0.052185	0.026245	-0.009918	0.075073	-0.042877	0.015106	0.011597	0.00824	-0.46951	-0.10925	0.15015	-0.032501	-0.017242	-0.1181	0.15945	0.096741	-0.005798	0.16068	-0.003357	-0.026703	0.20264	-0.002899	-0.003052
52.399	0.010834	0.97244	-0.10422	0.002747	-0.028229	-0.013275	-0.092316	0.005188	0.20142	-0.049133	0.04715	-0.011444	0.063171	-0.001831	0.003967	0.000763	0.008698	-0.43335	0.1886	0.17502	-0.029144	-0.004578	-0.21011	0.032501	0.036621	-0.007629	0.13336	-0.002747	-0.033875	0.16281	-0.002747	-0.011139
52.4	0.019379	0.95078	-0.049438	0.001678	0.03479	-0.006561	-0.096436	0.001526	0.19836	-0.05127	0.028229	-0.006409	0.066833	0.032806	0.005646	0.011902	0.002441	-0.35492	0.18463	-0.089722	-0.033875	-0.00473	-0.11902	0.046082	0.072479	-0.006714	-0.02243	-0.006714	0.7695	0.072327	-0.001678	0.006714
52.401	0.01709	0.9079	0.048981	-0.004883	0.004272	0.052338	-0.08728	0.007629	0.1857	-0.048065	0.040741	-0.01236	0.057983	0.068512	-0.008698	0.019684	0.002136	-0.3714	0.1796	-0.21027	-0.018616	-0.006561	-0.092926	0.071869	0.006866	-0.016632	0.017548	0.00473	0.10696	-0.059509	-0.00473	-0.006256
52.402	0.018158	0.87296	0.098877	-0.003815	0.003204	0.031281	-0.086823	-0.00351	0.20386	-0.042114	0.025635	-0.014648	0.050659	0.06424	-0.017395	0.015717	0.015717	-0.37033	0.62836	-0.18707	-0.042267	-0.039368	-0.13062	-0.028076	0.02655	-0.023193	0.14618	-0.004578	-0.79758	-0.11551	-0.00061	-0.008087
52.403	0.0177	0.82306	0.12329	0.007477	0.050812	0.007477	-0.066986	-0.001221	0.20828	-0.039368	0.030518	-0.016327	0.059967	0.03952	-0.016937	0.033112	0.017242	-0.39948	0.20142	0.15747	-0.046539	-0.036163	-0.048523	-0.06012	0.046387	-0.032806	0.18082	-0.010223	-0.61249	0.11917	-0.004883	-0.010681
52.404	0.022583	0.73379	0.074463	0.009155	0.02243	0.011139	-0.071716	-0.005341	0.19363	-0.030365	0.025482	-0.018768	0.073547	-0.052643	-0.004578	0.023193	0.010681	-0.45334	-0.46493	0.29968	-0.045776	-0.037842	-0.002289	-0.093536	-0.10498	-0.031433	0.18005	-0.007477	-0.062561	0.1651	-0.004578	-0.009918
52.405	0.012207	0.70404	0.026703	0.00473	0.005188	0.008087	-0.079041	0.003967	0.19028	-0.018311	0.02243	-0.018158	0.07431	-0.215	0.002289	0.032654	0.007782	-0.50766	-0.77652	0.15732	-0.043945	-0.023346	-0.040283	-0.044861	-0.18402	-0.010376	0.072327	0.001221	0.067596	-0.004272	0.000153	-0.017395
52.406	0.006866	0.64743	0.009155	-0.005341	-0.008698	0.032806	-0.06073	0.005798	0.16434	-0.028076	0.041046	-0.011444	0.091095	-0.37064	0.006104	0.083618	0.007629	-0.513	-0.59692	0.07782	-0.037994	0.003815	-0.037231	0.014648	-0.177	-0.010834	0.12848	0.001678	0.093079	0.052643	-0.004883	-0.007324
52.407	0.007477	0.62744	0.018311	0.000305	-0.028687	0.00824	-0.070648	0.005646	0.16144	-0.022278	0.03479	-0.016174	0.10513	-0.34622	0.00824	0.084534	0.015869	-0.466	-0.27466	-0.071716	-0.036011	0.001831	0.057831	-0.033722	-0.16449	-0.001068	0.13245	0.004425	-0.70221	0.19257	-0.00061	-0.005035
